<svg id="Layer_1" data-name="Layer 1" xmlns="http://www.w3.org/2000/svg" viewBox="0 0 1895.8 1792.71">
  <defs>
    <style>
      .cls-1 {
        fill: #fff;
      }
    </style>
  </defs>
  <title>linkedin</title>
  <path class="cls-1" d="M249.45,88.73C116.18,88.73,8.13,196.76,8.12,330S116.17,571.38,249.45,571.37,490.76,463.31,490.76,330,382.72,88.75,249.45,88.73ZM1421.6,640.26c-137,.19-261.79,62.65-344.75,163V657.49H628.67V1881.38h448.18V1489.21c1.23-191-41.41-477,196.71-514.82,242.73,20.55,182.17,248.91,182.17,489.75v417.24h448.18V1085.74s-.1,0-.1-.19c-1.52-246.23-235.66-445.38-482.24-445.38Zm-1379,17.29V1881.44H490.76V657.55Z" transform="translate(-8.12 -88.73)"/>
</svg>
