<svg id="logo" xmlns="http://www.w3.org/2000/svg" viewBox="0 0 1200 238">
  <defs>
    <style>
      .cls-1 {
        fill: #6e8255;
      }

      .cls-2 {
        fill: #fff;
      }
    </style>
  </defs>
  <title>logo-footer</title>
  <g id="zero">
    <path class="cls-1" d="M249,150a119,119,0,0,1-60.54,103.67h0a118.45,118.45,0,0,1-48,14.87l-1.55.13q-4.4.33-8.86.33-3.23,0-6.42-.18c-.81,0-1.63-.09-2.44-.15-3.22-.24-6.41-.6-9.55-1.1a115.65,115.65,0,0,1-19.72-4.82A119,119,0,1,1,249,150Z" transform="translate(-11 -31)"/>
    <g id="test">
      <path class="cls-2" d="M165.34,143.57a10.58,10.58,0,0,1-.49,1.4l-20.16,46.41-9.35,21.52-23.75,54.67a115.65,115.65,0,0,1-19.72-4.82l30-69,9.34-21.52L146.49,137a9,9,0,0,1,.69-1.31,10,10,0,0,1,18.16,7.88Z" transform="translate(-11 -31)"/>
      <path class="cls-2" d="M174.43,98.09a.75.75,0,0,1-.06-.13l-.14,0a9.24,9.24,0,0,0-1,.43l-.08.16,1.15-.45.45,1.14.07-.16S174.68,98.72,174.43,98.09Zm0,0a.75.75,0,0,1-.06-.13l-.14,0a9.24,9.24,0,0,0-1,.43l-.08.16,1.15-.45.45,1.14.07-.16S174.68,98.72,174.43,98.09Zm0,0a.75.75,0,0,1-.06-.13l-.14,0a9.24,9.24,0,0,0-1,.43l-.08.16,1.15-.45.45,1.14.07-.16S174.68,98.72,174.43,98.09Zm0,0a.75.75,0,0,1-.06-.13l-.14,0a9.24,9.24,0,0,0-1,.43l-.08.16,1.15-.45.45,1.14.07-.16S174.68,98.72,174.43,98.09Zm0,0a.75.75,0,0,1-.06-.13l-.14,0a9.24,9.24,0,0,0-1,.43l-.08.16,1.15-.45.45,1.14.07-.16S174.68,98.72,174.43,98.09Zm0,0a.75.75,0,0,1-.06-.13l-.14,0a9.24,9.24,0,0,0-1,.43l-.08.16,1.15-.45.45,1.14.07-.16S174.68,98.72,174.43,98.09Zm0,0a.75.75,0,0,1-.06-.13l-.14,0a9.24,9.24,0,0,0-1,.43l-.08.16,1.15-.45.45,1.14.07-.16S174.68,98.72,174.43,98.09Zm14.46-33.57c-15.88-6.9-36.24,4.76-45.49,26.05-7.4,17-5.44,35.06,3.78,45.12a23.9,23.9,0,0,0,18.16,7.88c13.64-.11,28.16-11,35.56-28C210.15,94.26,204.77,71.41,188.89,64.52Zm-5.24,50.07L164.87,122l-.07.16a9.92,9.92,0,0,1-1.15.47,8.77,8.77,0,0,1-.44-1.17l.06-.15-7.39-18.78s-1.18-10.69,7.75-11.17A10.64,10.64,0,0,1,174.37,98a10.6,10.6,0,0,1,12.13,3.34C192.25,108.15,183.65,114.59,183.65,114.59ZM173.22,98.43l-.08.16,1.15-.45.45,1.14.07-.16s-.13-.4-.38-1a.75.75,0,0,1-.06-.13l-.14,0A9.24,9.24,0,0,0,173.22,98.43Zm1.21-.34a.75.75,0,0,1-.06-.13l-.14,0a9.24,9.24,0,0,0-1,.43l-.08.16,1.15-.45.45,1.14.07-.16S174.68,98.72,174.43,98.09Zm0,0a.75.75,0,0,1-.06-.13l-.14,0a9.24,9.24,0,0,0-1,.43l-.08.16,1.15-.45.45,1.14.07-.16S174.68,98.72,174.43,98.09Zm0,0a.75.75,0,0,1-.06-.13l-.14,0a9.24,9.24,0,0,0-1,.43l-.08.16,1.15-.45.45,1.14.07-.16S174.68,98.72,174.43,98.09Zm0,0a.75.75,0,0,1-.06-.13l-.14,0a9.24,9.24,0,0,0-1,.43l-.08.16,1.15-.45.45,1.14.07-.16S174.68,98.72,174.43,98.09Zm0,0a.75.75,0,0,1-.06-.13l-.14,0a9.24,9.24,0,0,0-1,.43l-.08.16,1.15-.45.45,1.14.07-.16S174.68,98.72,174.43,98.09Zm0,0a.75.75,0,0,1-.06-.13l-.14,0a9.24,9.24,0,0,0-1,.43l-.08.16,1.15-.45.45,1.14.07-.16S174.68,98.72,174.43,98.09Z" transform="translate(-11 -31)"/>
    </g>
    <path class="cls-2" d="M188.45,253.67a117,117,0,0,1-18.52,8.45L135.34,212.9l-13.48-19.19L96.23,157.23l-5.65-8a10.39,10.39,0,0,1-.76-1.27A10,10,0,0,1,106,136.55a9.66,9.66,0,0,1,.94,1.14l5.6,8,18.64,26.54,13.49,19.19Z" transform="translate(-11 -31)"/>
    <rect class="cls-2" x="45.85" y="76.21" width="67.91" height="83.47" rx="27" ry="27" transform="matrix(0.82, -0.57, 0.57, 0.82, -63.81, 35.04)"/>
    <rect class="cls-1" x="70.71" y="105.34" width="43.22" height="6.8" rx="2.92" ry="2.92" transform="translate(116.16 -60.58) rotate(54.47)"/>
    <rect class="cls-1" x="58.55" y="113.02" width="43.22" height="6.8" rx="2.92" ry="2.92" transform="translate(117.33 -47.47) rotate(54.47)"/>
    <rect class="cls-1" x="45.57" y="122.14" width="43.22" height="6.8" rx="2.92" ry="2.92" transform="translate(119.31 -33.09) rotate(54.47)"/>
  </g>
  <g>
    <path class="cls-2" d="M441,74.09l57.17,120.67L551.47,74.09h12.09l-68.94,155.3h-6.53L414.14,74.09Z" transform="translate(-11 -31)"/>
    <path class="cls-2" d="M582.94,74.09h25.49V225.8H582.94Z" transform="translate(-11 -31)"/>
    <path class="cls-2" d="M646.54,74.09H697q23.41,0,40.24,4.36t28,13.94a71.8,71.8,0,0,1,19.33,25.1,74.07,74.07,0,0,1,6.48,31.09,77.54,77.54,0,0,1-5.83,30.06,70.28,70.28,0,0,1-17,24.56,79.85,79.85,0,0,1-27.55,16.55q-16.4,6-37.52,6.05H646.54ZM672,214.69h27a68.31,68.31,0,0,0,24.17-4.25A55.52,55.52,0,0,0,743,197.86a59.08,59.08,0,0,0,13.29-20.58Q761.1,165,761.11,149a69.92,69.92,0,0,0-4.57-25.65,59.53,59.53,0,0,0-12.8-20.14,58.32,58.32,0,0,0-19.6-13.18,64.13,64.13,0,0,0-24.89-4.74H672Z" transform="translate(-11 -31)"/>
    <path class="cls-2" d="M822.64,74.09h25.49V225.8H822.64Z" transform="translate(-11 -31)"/>
    <path class="cls-2" d="M886.24,74.09h14.27L999.94,185h1V74.09h11.22v155.3h-5.88L898.55,106h-.87V225.8H886.24Z" transform="translate(-11 -31)"/>
    <path class="cls-2" d="M1127.36,229.39a86.93,86.93,0,0,1-22.54-2.88,85.54,85.54,0,0,1-20-8.12,82.87,82.87,0,0,1-16.88-12.58,78.39,78.39,0,0,1-13-16.28,80.4,80.4,0,0,1-8.28-19.16,77,77,0,0,1-2.94-21.35,73.89,73.89,0,0,1,2.94-20.91,77.35,77.35,0,0,1,8.28-18.73,76.23,76.23,0,0,1,13-15.85,84.11,84.11,0,0,1,36.92-20.14,92.77,92.77,0,0,1,45.08,0,84.11,84.11,0,0,1,36.92,20.14,75.6,75.6,0,0,1,13,15.85,77.35,77.35,0,0,1,8.28,18.73A73.89,73.89,0,0,1,1211,149a77.13,77.13,0,0,1-2.94,21.29,80.14,80.14,0,0,1-8.28,19.22,77.74,77.74,0,0,1-13,16.28,82.87,82.87,0,0,1-16.88,12.58,85.54,85.54,0,0,1-20,8.12A86.93,86.93,0,0,1,1127.36,229.39Zm0-7.62a47.36,47.36,0,0,0,23-5.45,49,49,0,0,0,16.83-15.13,71.91,71.91,0,0,0,10.34-23,113.32,113.32,0,0,0,3.54-29.13,108.78,108.78,0,0,0-3.54-28.59A68.89,68.89,0,0,0,1167.17,98a47.84,47.84,0,0,0-16.83-14.65,48.9,48.9,0,0,0-23-5.23q-13.29,0-23.36,5.23A47.24,47.24,0,0,0,1087.17,98,67.88,67.88,0,0,0,1077,120.43a111.93,111.93,0,0,0-3.43,28.59,116.61,116.61,0,0,0,3.43,29.13,70.87,70.87,0,0,0,10.18,23A48.33,48.33,0,0,0,1104,216.32Q1114.08,221.77,1127.36,221.77Z" transform="translate(-11 -31)"/>
  </g>
</svg>
