<svg id="Layer_1" data-name="Layer 1" xmlns="http://www.w3.org/2000/svg" viewBox="0 0 298.4 298.4">
  <defs>
    <style>
      .cls-1 {
        fill: #fff;
      }
    </style>
  </defs>
  <title>social-insta</title>
  <path class="cls-1" d="M90,0A89.85,89.85,0,0,0,0,90V208.37a89.84,89.84,0,0,0,90,90H208.36a89.83,89.83,0,0,0,90-90V90a89.85,89.85,0,0,0-90-90Zm10,25.31h98.26a74.59,74.59,0,0,1,74.75,74.76v98.26a74.6,74.6,0,0,1-74.75,74.77H100.07a74.59,74.59,0,0,1-74.75-74.77V100.07A74.6,74.6,0,0,1,100.07,25.31ZM227.79,52a20,20,0,1,0,20,20v0a20,20,0,0,0-20-20ZM150.53,69.28a78.58,78.58,0,0,0-78.6,78.59h0a78.6,78.6,0,0,0,78.6,78.59h0a78.6,78.6,0,0,0,78.6-78.59h0a78.59,78.59,0,0,0-78.59-78.6Zm0,33.29a45.3,45.3,0,0,1,45.29,45.3h0a45.29,45.29,0,1,1-45.29-45.31Z" transform="translate(0 0)"/>
</svg>
