<svg id="Layer_1" data-name="Layer 1" xmlns="http://www.w3.org/2000/svg" viewBox="0 0 232.04 297.06">
  <defs>
    <style>
      .cls-1 {
        fill: #fff;
      }
    </style>
  </defs>
  <title>social-pin</title>
  <path class="cls-1" d="M161.55,2c-28-.45-56,7.15-83.94,30.43-27.79,24.23-36.18,54-33,92.81,9,48,24,45.59,38.62,51.71,15-4.79,17.31-22.69,11.84-30.53,0,0-19.86-15.76-19.7-46C90.37,59.13,114.54,22.28,181,26c122.84,33.11,39.35,216.88-28.84,136.9l5.17-19.57c2.75-17.48,36.52-49.39,9.21-67.57-63.33-33-48.17,66-48.17,66L92.56,244.86l4.36,54.2,31.14-44.85,14.35-54.34A79.55,79.55,0,0,0,158,210.6C248.49,231.66,293.86,147,269.47,70.44,254.42,36.37,221.59,4.6,161.55,2Z" transform="translate(-43.96 -2)"/>
</svg>
